@startuml
class com.example.myfinalproject.Event.AlarmManagerFragment {
- EditText etEventTitle
- Button btnAddEvent
- int year
- boolean dateSelected
- boolean timeSelected
- int durationHour
- boolean durationSelected
- int reminderYear
- boolean reminderDateSelected
- boolean reminderTimeSelected
- {static} int PERMISSION_REQUEST_CODE
- {static} String TAG
+ void onCreate(Bundle)
+ View onCreateView(LayoutInflater,ViewGroup,Bundle)
+ void onViewCreated(View,Bundle)
- void showDatePickerDialog()
- void showTimePickerDialog()
- void showDurationPickerDialog()
- void showReminderDatePickerDialog()
- void showReminderTimePickerDialog()
- long getDefaultCalendarId()
- void addEventToCalendar()
- void clearInputFields()
+ void onRequestPermissionsResult(int,String[],int[])
}


class com.example.myfinalproject.ChooseClassFragment.ChooseClassFragment {
+ {static} ChooseClassFragment newInstance()
+ void onCreate(Bundle)
+ View onCreateView(LayoutInflater,ViewGroup,Bundle)
+ void onViewCreated(View,Bundle)
}

class com.example.myfinalproject.UserProfileFragment.UserProfileFragment {
- TextView tvEmail
- Button btnShowSummaries
- ImageView imageView
- UserProfilePresenter presenter
- EditText etEmail
- {static} String IMAGE_DIRECTORY
- int GALLERY
- User currentUser
- ImageView currentDialogImageView
- EditText currentDialogBirthDateEditText
+ View onCreateView(LayoutInflater,ViewGroup,Bundle)
+ void onViewCreated(View,Bundle)
- void createCustomDialog()
- String imageViewToBase64(ImageView)
+ void displayUserData(User)
+ void onClick(View)
+ void submitClicked(User)
- void showPictureDialog()
+ void choosePhotoFromGallary()
- void takePhotoFromCamera()
+ void onActivityResult(int,int,Intent)
+ String saveImage(Bitmap)
+ void showError(String)
+ void onLogOutSuccess()
+ void onDeleteSuccess()
+ void openDialog()
+ void onResume()
}


class com.example.myfinalproject.ChooseUserFragment.ChooseUserFragment {
- ListView listViewUsers
- UserAdapter userAdapter
- ArrayList<User> userList
- ChooseUserPresenter presenter
- SearchView searchView
- ArrayList<User> fullUserList
+ void onCreate(Bundle)
+ View onCreateView(LayoutInflater,ViewGroup,Bundle)
+ void onViewCreated(View,Bundle)
- void navigateToReportFragment(User)
- void navigateToSummaryByUserFragment(User)
- void navigateToMessagesFragment(User)
+ void onUsersLoaded(List<User>)
+ void onUsersLoadError(String)
+ void onUsersFiltered(List<User>)
+ {static} ChooseUserFragment newInstance()
}


class com.example.myfinalproject.Timer.TimerFragment {
- TextView tvTimerDisplay
- EditText etHours
- Button btnStart
- SwitchMaterial switchNotification
- TimerPresenter presenter
+ View onCreateView(LayoutInflater,ViewGroup,Bundle)
- void inputValidation(EditText)
+ void onStart()
+ void onStop()
+ void updateTimerDisplay(long)
+ void updateButtonStates(boolean)
+ void resetButtonStates()
+ void setStopContinueButtonText(String)
+ void setStopContinueButtonEnabled(boolean)
+ void setStartButtonEnabled(boolean)
+ void showMessage(String)
+ void clearInputFields()
+ int getHours()
+ int getMinutes()
+ int getSeconds()
+ String getNotificationTime()
+ boolean isNotificationEnabled()
- int parseInputField(EditText,int)
}


class com.example.myfinalproject.QuestionsFragment.QuestionsFragment {
- Button btnContact
+ {static} QuestionsFragment newInstance()
+ void onCreate(Bundle)
+ View onCreateView(LayoutInflater,ViewGroup,Bundle)
+ void onViewCreated(View,Bundle)
+ void onClick(View)
}


class com.example.myfinalproject.ContactUsFragment.ContactUsFragment {
- EditText etUserName
- RadioGroup contactReasonGroup
- RadioButton rbOther
- TextInputLayout tilCustomReason
- Button btnSendContact
- TextView tvSubmitStatus
- NotificationAdminRepository notificationRepository
- boolean isUserLoggedIn
- String loggedInUsername
+ {static} ContactUsFragment newInstance()
+ View onCreateView(LayoutInflater,ViewGroup,Bundle)
- void checkUserLoginStatus()
+ void onViewCreated(View,Bundle)
- void sendMessage()
- void clearForm()
}




androidx.fragment.app.Fragment <|-- com.example.myfinalproject.Event.AlarmManagerFragment
androidx.fragment.app.Fragment <|-- com.example.myfinalproject.ChooseClassFragment.ChooseClassFragment
com.example.myfinalproject.UserProfileFragment.OnClickListener <|.. com.example.myfinalproject.UserProfileFragment.UserProfileFragment
androidx.fragment.app.Fragment <|-- com.example.myfinalproject.UserProfileFragment.UserProfileFragment
androidx.fragment.app.Fragment <|-- com.example.myfinalproject.ChooseUserFragment.ChooseUserFragment
androidx.fragment.app.Fragment <|-- com.example.myfinalproject.Timer.TimerFragment
com.example.myfinalproject.QuestionsFragment.OnClickListener <|.. com.example.myfinalproject.QuestionsFragment.QuestionsFragment
androidx.fragment.app.Fragment <|-- com.example.myfinalproject.QuestionsFragment.QuestionsFragment
androidx.fragment.app.Fragment <|-- com.example.myfinalproject.ContactUsFragment.ContactUsFragment
@enduml